<svg width="28" height="28" viewBox="0 0 28 28" fill="none" xmlns="http://www.w3.org/2000/svg">
<path fill-rule="evenodd" clip-rule="evenodd" d="M2.36328 13.1247C2.81073 7.09003 7.84865 2.33301 13.9976 2.33301C13.0283 2.33301 12.1652 2.75792 11.4552 3.40766C10.7488 4.05414 10.1518 4.95658 9.66895 6.02335C9.18324 7.09642 8.80597 8.35147 8.55061 9.71347C8.34591 10.8053 8.22134 11.9563 8.17982 13.1247H2.36328ZM2.36328 14.8747H8.17982C8.22134 16.0431 8.34591 17.1941 8.55061 18.2859C8.80597 19.6479 9.18324 20.9029 9.66895 21.976C10.1518 23.0428 10.7488 23.9452 11.4552 24.5917C12.1652 25.2414 13.0283 25.6663 13.9976 25.6663C7.84865 25.6663 2.81073 20.9093 2.36328 14.8747Z" fill="#282D34"/>
<path d="M13.9976 2.33301C14.967 2.33301 15.83 2.75792 16.54 3.40766C17.2465 4.05414 17.8435 4.95658 18.3263 6.02335C18.812 7.09642 19.1893 8.35147 19.4446 9.71348C19.6493 10.8053 19.7739 11.9563 19.8154 13.1247H25.632C25.1845 7.09003 20.1466 2.33301 13.9976 2.33301Z" fill="#282D34"/>
<path d="M19.4446 18.2859C19.1893 19.6479 18.812 20.9029 18.3263 21.976C17.8435 23.0428 17.2465 23.9452 16.54 24.5917C15.83 25.2414 14.967 25.6663 13.9976 25.6663C20.1466 25.6663 25.1845 20.9093 25.632 14.8747H19.8154C19.7739 16.0431 19.6493 17.1941 19.4446 18.2859Z" fill="#282D34"/>
<g opacity="0.5">
<path d="M13.9992 3.96191C13.6783 3.96191 13.2638 4.09843 12.7819 4.53949C12.2963 4.98381 11.8103 5.68018 11.3808 6.62894C10.9542 7.57141 10.6078 8.70915 10.3695 9.98057C10.1817 10.9818 10.0653 12.0432 10.0244 13.1257H17.9739C17.933 12.0432 17.8166 10.9818 17.6288 9.98057C17.3905 8.70915 17.0441 7.57141 16.6175 6.62894C16.188 5.68018 15.702 4.98381 15.2165 4.53949C14.7345 4.09843 14.32 3.96191 13.9992 3.96191Z" fill="#282D34"/>
<path d="M10.3695 18.0208C10.6078 19.2922 10.9542 20.4299 11.3808 21.3724C11.8103 22.3212 12.2963 23.0175 12.7819 23.4619C13.2638 23.9029 13.6783 24.0394 13.9992 24.0394C14.32 24.0394 14.7345 23.9029 15.2165 23.4619C15.702 23.0175 16.188 22.3212 16.6175 21.3724C17.0441 20.4299 17.3905 19.2922 17.6288 18.0208C17.8166 17.0195 17.933 15.9581 17.9739 14.8757H10.0244C10.0653 15.9581 10.1817 17.0195 10.3695 18.0208Z" fill="#282D34"/>
</g>
</svg>
